<?xml version="1.0" standalone="no"?>
<!DOCTYPE svg PUBLIC "-//W3C//DTD SVG 20010904//EN"
 "http://www.w3.org/TR/2001/REC-SVG-20010904/DTD/svg10.dtd">
<svg version="1.0" xmlns="http://www.w3.org/2000/svg"
 width="161.000000pt" height="161.000000pt" viewBox="0 0 161.000000 161.000000"
 preserveAspectRatio="xMidYMid meet">
<metadata>
Created by potrace 1.14, written by Peter Selinger 2001-2017
</metadata>
<g transform="translate(0.000000,161.000000) scale(0.100000,-0.100000)"
fill="#000000" stroke="none">
<path d="M1105 1545 c-5 -2 -44 -11 -85 -20 -41 -9 -94 -23 -117 -31 -23 -7
-52 -15 -65 -18 -76 -15 -718 -182 -723 -188 -8 -11 -86 -251 -82 -254 2 -3
15 0 29 5 14 5 42 12 64 15 21 3 51 8 65 11 l25 6 0 -155 0 -155 -105 -29
c-119 -32 -111 -22 -97 -134 3 -27 8 -69 11 -95 4 -27 8 -59 10 -73 2 -14 6
-50 10 -80 11 -99 27 -215 30 -218 1 -2 72 16 156 38 85 23 211 57 281 75
l126 33 13 -29 c6 -17 24 -43 39 -59 23 -25 31 -28 61 -21 30 8 243 65 451
122 40 11 80 21 89 23 161 39 257 71 279 92 l25 24 1 350 c0 193 0 350 -1 350
0 0 -66 -17 -145 -39 -80 -21 -157 -41 -172 -45 -14 -3 -34 -9 -43 -12 -16 -6
-16 -4 1 27 15 29 18 61 18 210 0 155 -2 181 -19 212 -10 20 -28 40 -39 46
-25 12 -77 21 -91 16z"/>
<path d="M501 1471 c-7 -5 -22 -6 -33 -3 -10 2 -18 1 -17 -4 3 -20 -2 -28 -10
-15 -5 8 -14 10 -22 6 -7 -5 -24 -9 -38 -11 -14 -1 -37 -5 -51 -8 -14 -3 -37
-8 -52 -12 -16 -3 -28 -10 -28 -15 0 -6 -4 -7 -10 -4 -6 4 -10 -9 -9 -32 0
-21 3 -33 5 -26 3 7 12 9 21 6 13 -5 15 -2 11 14 -3 12 -2 27 3 34 6 10 9 6 9
-13 0 -16 5 -28 10 -28 6 0 8 10 4 24 -3 13 -1 27 5 30 7 5 11 -4 11 -23 0
-22 4 -29 14 -25 11 4 13 12 6 30 -6 15 -6 24 0 24 5 0 13 -12 16 -26 l7 -27
19 24 c10 13 17 19 16 13 -6 -26 47 -18 60 9 9 19 11 19 11 3 1 -15 6 -17 28
-11 30 7 43 21 43 47 0 21 -12 29 -29 19z m-11 -43 c0 -26 -13 -16 -17 13 -2
12 1 18 7 14 5 -3 10 -16 10 -27z"/>
<path d="M186 1393 c-6 -15 -9 -15 -17 -3 -8 11 -12 12 -15 3 -3 -7 -12 -9
-19 -6 -11 4 -14 -4 -13 -31 1 -29 5 -36 17 -31 9 4 27 9 41 11 33 7 42 17 38
45 -4 28 -23 36 -32 12z"/>
</g>
</svg>
